<svg aria-hidden="true" style="position: absolute; width: 0; height: 0; overflow: hidden;" version="1.1" xmlns="http://www.w3.org/2000/svg" xmlns:xlink="http://www.w3.org/1999/xlink">
    <defs>
        <symbol id="icon-star" viewBox="0 0 33 32">
            <path d="M25.063 31.607c-0.451-0-0.892-0.129-1.273-0.372l-7.381-4.676c-0.006-0.004-0.012-0.006-0.019-0.006s-0.014 0.002-0.019 0.006l-6.859 4.346c-0.442 0.282-0.959 0.424-1.484 0.408s-1.031-0.191-1.455-0.5c-0.438-0.318-0.771-0.76-0.954-1.27s-0.207-1.062-0.071-1.586l1.978-7.779c0.005-0.019 0.005-0.040 0-0.059s-0.016-0.037-0.030-0.051l-6.619-5.509c-0.377-0.313-0.651-0.733-0.786-1.205s-0.124-0.973 0.030-1.438c0.146-0.459 0.426-0.864 0.806-1.161s0.839-0.473 1.32-0.504l8.644-0.561c0.011-0.003 0.022-0.009 0.030-0.017s0.015-0.018 0.018-0.030l3.224-8.118c0.174-0.449 0.48-0.835 0.877-1.107s0.867-0.418 1.349-0.418c0.481 0 0.952 0.146 1.349 0.418s0.703 0.658 0.877 1.107l3.224 8.118c0.003 0.011 0.009 0.022 0.018 0.030s0.019 0.014 0.030 0.017l8.644 0.561c0.481 0.032 0.941 0.207 1.32 0.504s0.66 0.701 0.806 1.161c0.155 0.465 0.165 0.967 0.030 1.438s-0.409 0.891-0.786 1.205l-6.619 5.509c-0.014 0.014-0.025 0.032-0.030 0.051s-0.005 0.040 0 0.059l2.132 8.389c0.124 0.474 0.101 0.975-0.064 1.436s-0.467 0.862-0.864 1.15c-0.405 0.295-0.894 0.455-1.395 0.456zM16.39 24.214c0.45-0.001 0.891 0.127 1.272 0.367l7.381 4.676c0.007 0.005 0.014 0.008 0.021 0.011 0.018-0.009 0.033-0.022 0.045-0.039 0.008-0.013 0.013-0.027 0.015-0.043s-0.001-0.030-0.007-0.044l-2.133-8.389c-0.114-0.448-0.099-0.919 0.043-1.359s0.404-0.831 0.758-1.128l6.619-5.509c0.018-0.013 0.030-0.033 0.035-0.054s0.002-0.044-0.008-0.064c-0.017-0.051-0.034-0.052-0.051-0.053l-8.644-0.561c-0.454-0.032-0.889-0.192-1.255-0.461s-0.65-0.636-0.817-1.058l-3.224-8.118c-0.019-0.047-0.030-0.047-0.050-0.047s-0.031 0-0.050 0.047l-3.224 8.118c-0.167 0.423-0.451 0.79-0.817 1.058s-0.802 0.429-1.255 0.461l-8.643 0.561c-0.017 0.001-0.034 0.002-0.051 0.053-0.010 0.020-0.013 0.043-0.008 0.064s0.018 0.041 0.035 0.054l6.619 5.509c0.354 0.298 0.616 0.689 0.758 1.128s0.157 0.911 0.043 1.359l-1.978 7.78c-0.022 0.069-0.021 0.144 0.002 0.213s0.068 0.129 0.128 0.171c0.043 0.036 0.097 0.057 0.154 0.059s0.112-0.015 0.157-0.049l6.859-4.346c0.381-0.24 0.822-0.368 1.272-0.367z"></path>
        </symbol>
        <symbol id="icon-square" viewBox="0 0 27 32">
            <path d="M0.496 2.798v21.6c0.001 0.636 0.254 1.246 0.704 1.696s1.060 0.703 1.696 0.704h2.4v2.4c0.001 0.636 0.254 1.246 0.704 1.696s1.060 0.703 1.696 0.704h3.577c0.008 0 0.015 0.001 0.023 0.001s0.015-0.001 0.023-0.001h13.177c0.636-0.001 1.246-0.254 1.696-0.704s0.703-1.060 0.704-1.696v-21.6c-0.001-0.636-0.254-1.246-0.704-1.696s-1.060-0.703-1.696-0.704h-2.4v-2.4c-0.001-0.636-0.254-1.246-0.704-1.696s-1.060-0.703-1.696-0.704h-16.8c-0.636 0.001-1.246 0.254-1.696 0.704s-0.703 1.060-0.704 1.696zM7.696 7.598l2.4-0v21.6h-2.4v-21.6zM24.496 7.598v21.6h-14.4v-21.6l10.776-0.001c0.008 0 0.016 0.001 0.024 0.001s0.016-0.001 0.024-0.001l3.576 0.001zM19.696 2.798v2.4h-12c-0.636 0.001-1.246 0.254-1.696 0.704s-0.703 1.060-0.704 1.696v16.8h-2.4v-21.6h16.8z"></path>
        </symbol>
        <symbol id="icon-sword" viewBox="0 0 32 32">
            <path d="M31.64 0.36c-0.231-0.231-0.544-0.36-0.87-0.36h-0.004l-9.815 0.031c-0.181 0.001-0.359 0.041-0.522 0.118s-0.308 0.189-0.423 0.329l-10.83 13.11-1.281-1.281c-0.462-0.461-1.088-0.72-1.741-0.72s-1.279 0.259-1.741 0.72l-1.951 1.952c-0.229 0.229-0.41 0.5-0.534 0.799s-0.187 0.619-0.187 0.942c-0 0.323 0.064 0.643 0.187 0.942s0.305 0.57 0.534 0.799l3.213 3.213-4.606 4.606c-0.461 0.462-0.72 1.088-0.72 1.741s0.259 1.279 0.72 1.741l1.89 1.89c0.229 0.229 0.5 0.41 0.799 0.534s0.619 0.187 0.942 0.187 0.643-0.064 0.942-0.187c0.299-0.124 0.57-0.305 0.799-0.534l4.606-4.606 3.214 3.214c0.462 0.461 1.088 0.72 1.741 0.72s1.279-0.259 1.741-0.72l1.951-1.952c0.229-0.229 0.41-0.5 0.534-0.799s0.188-0.619 0.188-0.942c0-0.323-0.064-0.643-0.187-0.942s-0.305-0.57-0.534-0.799l-1.28-1.28 13.11-10.83c0.139-0.115 0.252-0.259 0.329-0.423s0.118-0.342 0.118-0.522l0.031-9.815c0.001-0.162-0.031-0.323-0.093-0.473s-0.153-0.286-0.267-0.401zM16 27.798l-3.213-3.213c-0.229-0.229-0.5-0.41-0.799-0.534s-0.619-0.187-0.942-0.187c-0.323 0-0.643 0.064-0.942 0.187s-0.57 0.305-0.799 0.534l-4.606 4.606-1.89-1.89 4.606-4.606c0.461-0.462 0.72-1.088 0.72-1.741s-0.259-1.279-0.72-1.741l-3.213-3.213 1.952-1.952 11.798 11.798-1.952 1.952zM29.509 10.465l-12.846 10.612-2-2 8.361-8.36c0.231-0.231 0.361-0.544 0.361-0.87s-0.13-0.639-0.361-0.87c-0.231-0.231-0.544-0.361-0.87-0.361s-0.639 0.13-0.87 0.361l-8.36 8.36-2-2 10.612-12.846 7.999-0.025-0.025 7.999z"></path>
        </symbol>
        <symbol id="icon-people" viewBox="0 0 24 32">
            <path d="M16.507 5.043c0-0.929-0.275-1.837-0.791-2.609s-1.249-1.374-2.107-1.729c-0.858-0.355-1.802-0.448-2.713-0.267s-1.748 0.628-2.404 1.285c-0.657 0.657-1.104 1.493-1.285 2.404s-0.088 1.855 0.267 2.713 0.957 1.591 1.729 2.107c0.772 0.516 1.68 0.791 2.609 0.791 1.245-0.001 2.438-0.497 3.319-1.377s1.375-2.074 1.377-3.319zM11.811 7.652c-0.516 0-1.020-0.153-1.449-0.44s-0.763-0.694-0.961-1.171-0.249-1.001-0.148-1.507c0.101-0.506 0.349-0.971 0.714-1.336s0.83-0.613 1.336-0.714c0.506-0.101 1.031-0.049 1.507 0.148s0.884 0.532 1.171 0.961c0.287 0.429 0.44 0.933 0.44 1.449-0.001 0.692-0.276 1.355-0.765 1.844s-1.152 0.764-1.844 0.765zM22.74 17.502l-5.13-6.596c-0.026-0.034-0.055-0.067-0.086-0.097-0.338-0.34-0.741-0.61-1.184-0.794s-0.919-0.277-1.398-0.276h-6.261c-0.48-0.001-0.955 0.093-1.398 0.276s-0.846 0.453-1.184 0.794c-0.031 0.031-0.059 0.063-0.086 0.097l-5.13 6.596c-0.467 0.494-0.722 1.15-0.713 1.829s0.284 1.328 0.764 1.808 1.129 0.754 1.808 0.764c0.679 0.010 1.335-0.246 1.829-0.713l1.839-1.431-2.587 8.17c-0.269 0.623-0.284 1.327-0.043 1.961s0.721 1.149 1.336 1.436c0.615 0.287 1.318 0.323 1.959 0.1s1.17-0.687 1.475-1.293l3.262-5.134 3.262 5.134c0.305 0.607 0.834 1.070 1.475 1.293s1.344 0.187 1.959-0.1 1.094-0.802 1.336-1.436c0.241-0.634 0.226-1.338-0.043-1.961l-2.587-8.17 1.839 1.431c0.494 0.467 1.15 0.722 1.829 0.713s1.328-0.284 1.808-0.764c0.48-0.48 0.754-1.129 0.764-1.808s-0.246-1.335-0.713-1.829zM21.214 19.663c-0.098 0.098-0.231 0.153-0.369 0.153s-0.271-0.055-0.369-0.153c-0.031-0.031-0.063-0.059-0.097-0.086l-4.532-3.525c-0.176-0.137-0.391-0.214-0.613-0.219s-0.441 0.060-0.624 0.187-0.32 0.309-0.392 0.52c-0.072 0.211-0.074 0.439-0.007 0.651l3.617 11.425c0.014 0.043 0.030 0.085 0.049 0.126 0.058 0.125 0.065 0.269 0.017 0.399s-0.144 0.236-0.27 0.294c-0.125 0.058-0.269 0.065-0.399 0.017s-0.236-0.144-0.294-0.27c-0.019-0.041-0.041-0.081-0.065-0.119l-4.175-6.57c-0.094-0.148-0.224-0.27-0.378-0.355s-0.327-0.129-0.502-0.129c-0.176 0-0.349 0.044-0.502 0.129s-0.284 0.207-0.378 0.355l-4.175 6.57c-0.024 0.038-0.046 0.078-0.065 0.119-0.058 0.125-0.164 0.222-0.294 0.27s-0.274 0.041-0.399-0.017-0.222-0.164-0.27-0.294c-0.047-0.13-0.041-0.274 0.017-0.399 0.019-0.041 0.036-0.083 0.049-0.126l3.617-11.425c0.067-0.212 0.065-0.44-0.007-0.651s-0.209-0.393-0.392-0.52c-0.183-0.127-0.401-0.193-0.624-0.187s-0.437 0.083-0.613 0.219l-4.532 3.525c-0.034 0.027-0.067 0.055-0.097 0.086-0.098 0.098-0.231 0.153-0.369 0.153s-0.271-0.055-0.369-0.153c-0.098-0.098-0.153-0.231-0.153-0.369s0.055-0.271 0.153-0.369c0.031-0.031 0.059-0.063 0.086-0.097l5.12-6.583c0.289-0.27 0.67-0.42 1.066-0.419h6.261c0.396-0.001 0.777 0.149 1.066 0.419l5.12 6.583c0.026 0.034 0.055 0.067 0.086 0.097 0.098 0.098 0.153 0.231 0.153 0.369s-0.055 0.271-0.153 0.369z"></path>
        </symbol>
        <symbol id="icon-setting" viewBox="0 0 32 32">
            <path d="M16 6.857c-1.808 0-3.576 0.536-5.079 1.541s-2.675 2.433-3.367 4.103-0.873 3.509-0.52 5.282c0.353 1.773 1.224 3.403 2.502 4.681s2.908 2.149 4.681 2.502 3.612 0.172 5.283-0.52c1.671-0.692 3.099-1.864 4.103-3.367s1.541-3.271 1.541-5.079c-0.003-2.424-0.967-4.748-2.681-6.462s-4.038-2.678-6.462-2.681zM16 22.857c-1.356 0-2.682-0.402-3.81-1.156s-2.007-1.824-2.526-3.077c-0.519-1.253-0.655-2.632-0.39-3.962s0.918-2.552 1.877-3.511c0.959-0.959 2.181-1.612 3.511-1.877s2.709-0.129 3.962 0.39 2.324 1.398 3.077 2.526c0.753 1.128 1.156 2.453 1.156 3.81-0.002 1.818-0.725 3.561-2.011 4.846s-3.028 2.009-4.846 2.011zM29.714 16.797v-1.594l1.28-1.921c0.191-0.282 0.316-0.604 0.367-0.941s0.027-0.681-0.072-1.007c-0.299-0.986-0.694-1.94-1.178-2.849-0.161-0.3-0.387-0.56-0.661-0.762s-0.59-0.34-0.924-0.405l-2.266-0.453-1.127-1.127-0.453-2.266c-0.065-0.334-0.203-0.65-0.405-0.924s-0.462-0.5-0.762-0.661c-0.909-0.484-1.863-0.878-2.849-1.178-0.326-0.098-0.67-0.123-1.007-0.072s-0.658 0.177-0.941 0.367l-1.921 1.28h-1.594l-1.92-1.28c-0.282-0.191-0.604-0.316-0.941-0.367s-0.681-0.027-1.007 0.072c-0.985 0.3-1.939 0.694-2.849 1.178-0.3 0.161-0.56 0.387-0.762 0.661s-0.34 0.59-0.405 0.924l-0.453 2.266-1.127 1.127-2.266 0.453c-0.334 0.065-0.65 0.203-0.924 0.405s-0.5 0.462-0.661 0.762c-0.484 0.909-0.878 1.864-1.178 2.849-0.098 0.326-0.123 0.67-0.072 1.007s0.176 0.658 0.367 0.941l1.28 1.921v1.594l-1.28 1.921c-0.191 0.282-0.316 0.604-0.367 0.941s-0.027 0.681 0.072 1.007c0.299 0.986 0.694 1.94 1.178 2.849 0.161 0.3 0.387 0.56 0.661 0.762s0.59 0.34 0.924 0.405l2.266 0.453 1.127 1.127 0.453 2.266c0.065 0.334 0.203 0.65 0.405 0.924s0.462 0.5 0.762 0.661c0.909 0.484 1.863 0.878 2.849 1.178 0.326 0.098 0.67 0.123 1.007 0.072s0.658-0.176 0.941-0.367l1.921-1.281h1.594l1.921 1.281c0.381 0.256 0.829 0.393 1.287 0.394 0.224-0 0.446-0.033 0.66-0.098 0.985-0.299 1.939-0.694 2.849-1.178 0.3-0.161 0.56-0.387 0.762-0.661s0.34-0.59 0.405-0.924l0.453-2.266 1.127-1.127 2.266-0.453c0.334-0.065 0.65-0.203 0.924-0.405s0.5-0.462 0.661-0.762c0.484-0.909 0.878-1.863 1.178-2.849 0.098-0.326 0.123-0.67 0.072-1.007s-0.177-0.658-0.367-0.941l-1.28-1.921zM28.102 22.43c-0.007 0.005-0.015 0.008-0.023 0.010l-2.605 0.521c-0.221 0.044-0.425 0.153-0.584 0.313l-1.616 1.616c-0.16 0.16-0.268 0.363-0.313 0.584l-0.521 2.606c-0.002 0.012-0.007 0.020-0.002 0.017-0.775 0.412-1.588 0.749-2.428 1.005-0.009-0.001-0.017-0.004-0.024-0.009l-2.209-1.472c-0.188-0.125-0.408-0.192-0.634-0.192h-2.286c-0.226 0-0.446 0.067-0.634 0.192l-2.209 1.472c-0.010 0.007-0.021 0.009-0.015 0.011-0.84-0.255-1.654-0.591-2.43-1.002-0.005-0.007-0.008-0.015-0.010-0.023l-0.521-2.606c-0.044-0.221-0.153-0.424-0.313-0.584l-1.616-1.616c-0.16-0.16-0.363-0.268-0.584-0.313l-2.605-0.521c-0.008-0.002-0.014-0.004-0.017-0.004-0.001 0-0.001 0.001-0.001 0.002-0.412-0.775-0.749-1.588-1.005-2.428 0.001-0.009 0.004-0.017 0.009-0.024l1.472-2.209c0.125-0.188 0.192-0.408 0.192-0.634v-2.286c0-0.226-0.067-0.446-0.192-0.634l-1.472-2.209c-0.006-0.010-0.009-0.020-0.010-0.015 0.255-0.84 0.591-1.654 1.002-2.43 0.007-0.005 0.015-0.008 0.023-0.010l2.605-0.521c0.221-0.044 0.424-0.153 0.584-0.313l1.616-1.616c0.16-0.16 0.268-0.363 0.313-0.584l0.521-2.605c0.002-0.011 0.007-0.019 0.002-0.017 0.775-0.412 1.588-0.749 2.428-1.005 0.008 0.002 0.016 0.005 0.024 0.009l2.209 1.472c0.188 0.125 0.408 0.192 0.634 0.192h2.286c0.226 0 0.446-0.067 0.634-0.192l2.209-1.472c0.010-0.006 0.020-0.009 0.015-0.010 0.84 0.255 1.654 0.591 2.43 1.002 0.005 0.007 0.008 0.015 0.010 0.023l0.521 2.606c0.044 0.221 0.153 0.424 0.313 0.584l1.616 1.616c0.16 0.16 0.363 0.268 0.584 0.313l2.605 0.521c0.012 0.002 0.019 0.007 0.017 0.002 0.412 0.775 0.749 1.588 1.006 2.428-0.001 0.009-0.004 0.017-0.009 0.024l-1.472 2.209c-0.125 0.188-0.192 0.408-0.192 0.634v2.286c0 0.226 0.067 0.446 0.192 0.634l1.472 2.209c0.007 0.010 0.009 0.020 0.011 0.015-0.255 0.84-0.591 1.654-1.002 2.43z"></path>
        </symbol>
        <symbol id="icon-world" viewBox="0 0 32 32">
            <path d="M30.040 22.797c1.002-2.068 1.534-4.332 1.559-6.63s-0.458-4.573-1.415-6.663-2.363-3.942-4.119-5.424c-1.756-1.483-3.818-2.559-6.038-3.152-0.027-0.008-0.054-0.016-0.082-0.022-2.436-0.636-4.99-0.673-7.444-0.106s-4.733 1.719-6.644 3.358c-0.072 0.050-0.139 0.108-0.198 0.173-2.371 2.098-4.047 4.868-4.805 7.941s-0.564 6.305 0.559 9.265c1.122 2.96 3.119 5.508 5.725 7.306s5.697 2.76 8.862 2.758c0.11 0 0.22-0.002 0.33-0.004 0.003 0 0.005 0 0.008 0 0.005 0 0.010-0.001 0.016-0.001 2.833-0.067 5.595-0.903 7.989-2.42s4.331-3.655 5.602-6.188l0.002-0.003c0.036-0.060 0.067-0.123 0.093-0.188zM29.2 16c0.001 1.573-0.28 3.133-0.83 4.606l-6.96-4.281c-0.285-0.176-0.604-0.29-0.936-0.334l-3.423-0.461c-0.44-0.057-0.887 0.008-1.293 0.189s-0.753 0.469-1.006 0.834h-1.281l-0.571-1.179c-0.158-0.329-0.39-0.618-0.677-0.843s-0.622-0.382-0.979-0.458l-0.985-0.212 0.687-1.631h3.202c0.406-0 0.805-0.103 1.16-0.299l1.837-1.014c0.162-0.089 0.312-0.197 0.449-0.321l4.037-3.651c0.348-0.312 0.596-0.72 0.715-1.172s0.101-0.929-0.050-1.372c2.087 1.134 3.83 2.81 5.045 4.851s1.857 4.372 1.859 6.748zM18.878 3.117l1.143 2.048-4.037 3.651-1.836 1.014h-3.202c-0.472-0.001-0.934 0.138-1.328 0.4s-0.701 0.633-0.884 1.069l-0.786 1.866-1.642-4.383 1.226-2.898c1.552-1.301 3.382-2.228 5.35-2.707s4.019-0.5 5.996-0.058zM2.8 16c-0.002-2.067 0.484-4.106 1.419-5.95l1.563 4.173c0.14 0.377 0.374 0.713 0.678 0.976s0.671 0.445 1.065 0.528l3.215 0.691 0.571 1.179c0.198 0.405 0.505 0.746 0.887 0.986s0.823 0.367 1.274 0.369h0.166l-1.154 2.59c-0.191 0.429-0.253 0.904-0.176 1.368s0.287 0.894 0.606 1.239l2.82 3.050-0.384 1.985c-3.383-0.171-6.571-1.634-8.906-4.087s-3.639-5.71-3.643-9.096zM17.815 29.075l0.275-1.42c0.071-0.37 0.054-0.751-0.049-1.113s-0.29-0.695-0.545-0.972l-2.82-3.050 2.055-4.611 3.423 0.461 7.169 4.409c-1.015 1.692-2.395 3.136-4.040 4.225s-3.513 1.797-5.467 2.071z"></path>
        </symbol>
        <symbol id="icon-righ-arrow" viewBox="0 0 16 32">
            <path stroke-linejoin="round" stroke-linecap="round" stroke-miterlimit="4" stroke-width="3" d="M2 2l12 14-12 14"></path>
        </symbol>
        <symbol id="icon-left-arrow" viewBox="0 0 16 32">
            <path stroke-linejoin="round" stroke-linecap="round" stroke-miterlimit="4" stroke-width="3" d="M14 2l-12 14 12 14"></path>
        </symbol>
        <symbol id="icon-up-arrow" viewBox="0 0 64 32">
            <path stroke-linejoin="round" stroke-linecap="round" stroke-miterlimit="4" stroke-width="6" d="M4 28l28-24 28 24"></path>
        </symbol>
        <symbol id="icon-down-arrow" viewBox="0 0 64 32">
            <path stroke-linejoin="round" stroke-linecap="round" stroke-miterlimit="4" stroke-width="6" d="M4 4l28 24 28-24"></path>
        </symbol>
        <symbol id="icon-line-right" viewBox="0 0 211 32">
            <path d="M182.4 12.8h3.2v6.4h-3.2v-6.4zM0 16v-3.2h182.4v6.4h-182.4v-3.2z"></path>
            <path d="M184 13.229c-2.133 1.232-2.133 4.311 0 5.543l14.4 8.314c2.133 1.232 4.8-0.308 4.8-2.771v-16.628c0-2.463-2.667-4.003-4.8-2.771l-14.4 8.314z"></path>
        </symbol>
        <symbol id="icon-line-left" viewBox="0 0 211 32">
            <path d="M28.8 12.8h-3.2v6.4h3.2v-6.4zM211.2 16v-3.2h-182.4v6.4h182.4v-3.2z"></path>
            <path d="M27.2 13.229c2.133 1.232 2.133 4.311 0 5.543l-14.4 8.314c-2.133 1.232-4.8-0.308-4.8-2.771v-16.628c0-2.463 2.667-4.003 4.8-2.771l14.4 8.314z"></path>
        </symbol>
        <symbol id="icon-bow" viewBox="0 0 32 32">
            <path d="M26.415 7.155l1.437 1.437 2.963-7.407-7.407 2.963 1.437 1.437-2.696 2.696c-7.822-6.859-19.037-4.222-19.526-4.133l-1.437 0.385 0.741 2.874 1.17-0.296 10.118 10.104-4.711 4.711h-2.874l-4.444 4.444 2.963 1.481 1.482 2.963 4.444-4.444v-2.874l4.711-4.711 10.104 10.119-0.282 1.17 2.859 0.741 0.385-1.437c0.089-0.489 2.726-11.704-4.133-19.526l2.696-2.696zM4.889 6.785c3.037-0.415 10.044-0.741 15.156 3.6l-5.793 5.793-9.363-9.393zM25.215 27.111l-9.393-9.363 5.793-5.793c4.341 5.111 4.015 12.118 3.6 15.156z"></path>
        </symbol>
        <symbol id="icon-burger" viewBox="0 0 37 32">
            <path d="M0.889 2.667c0-0.589 0.234-1.155 0.651-1.571s0.982-0.651 1.571-0.651h31.111c0.589 0 1.155 0.234 1.571 0.651s0.651 0.982 0.651 1.571-0.234 1.155-0.651 1.571c-0.417 0.417-0.982 0.651-1.571 0.651h-31.111c-0.589 0-1.155-0.234-1.571-0.651s-0.651-0.982-0.651-1.571zM0.889 16c0-0.589 0.234-1.155 0.651-1.571s0.982-0.651 1.571-0.651h31.111c0.589 0 1.155 0.234 1.571 0.651s0.651 0.982 0.651 1.571-0.234 1.155-0.651 1.571c-0.417 0.417-0.982 0.651-1.571 0.651h-31.111c-0.589 0-1.155-0.234-1.571-0.651s-0.651-0.982-0.651-1.571zM3.111 27.111c-0.589 0-1.155 0.234-1.571 0.651s-0.651 0.982-0.651 1.571 0.234 1.155 0.651 1.571c0.417 0.417 0.982 0.651 1.571 0.651h31.111c0.589 0 1.155-0.234 1.571-0.651s0.651-0.982 0.651-1.571-0.234-1.155-0.651-1.571c-0.417-0.417-0.982-0.651-1.571-0.651h-31.111z"></path>
        </symbol>
        <symbol id="icon-left-close" viewBox="0 0 32 32">
            <path d="M1.489 1.489c0.313-0.312 0.736-0.487 1.178-0.487s0.865 0.175 1.178 0.487l26.667 26.667c0.164 0.153 0.295 0.337 0.386 0.541s0.14 0.425 0.144 0.649c0.004 0.224-0.037 0.446-0.121 0.654s-0.209 0.396-0.367 0.554-0.347 0.283-0.554 0.367c-0.207 0.084-0.43 0.125-0.654 0.121s-0.445-0.053-0.649-0.144c-0.204-0.091-0.388-0.223-0.541-0.386l-26.667-26.667c-0.312-0.313-0.487-0.736-0.487-1.178s0.175-0.865 0.487-1.178z"></path>
        </symbol>
        <symbol id="icon-right-close" viewBox="0 0 32 32">
            <path d="M30.511 1.489c0.312 0.313 0.487 0.736 0.487 1.178s-0.175 0.865-0.487 1.178l-26.667 26.667c-0.316 0.294-0.734 0.455-1.166 0.447s-0.844-0.183-1.149-0.488c-0.305-0.305-0.48-0.717-0.488-1.149s0.153-0.85 0.447-1.166l26.667-26.667c0.313-0.312 0.736-0.487 1.178-0.487s0.865 0.175 1.178 0.487z"></path>
        </symbol>
    </defs>
</svg>