<svg aria-hidden="true" style="position: absolute; width: 0; height: 0; overflow: hidden;" version="1.1" xmlns="http://www.w3.org/2000/svg" xmlns:xlink="http://www.w3.org/1999/xlink">
<defs>
<symbol id="icon-burger" viewBox="0 0 37 32">
<path d="M0.889 2.667c0-0.589 0.234-1.155 0.651-1.571s0.982-0.651 1.571-0.651h31.111c0.589 0 1.155 0.234 1.571 0.651s0.651 0.982 0.651 1.571-0.234 1.155-0.651 1.571c-0.417 0.417-0.982 0.651-1.571 0.651h-31.111c-0.589 0-1.155-0.234-1.571-0.651s-0.651-0.982-0.651-1.571zM0.889 16c0-0.589 0.234-1.155 0.651-1.571s0.982-0.651 1.571-0.651h31.111c0.589 0 1.155 0.234 1.571 0.651s0.651 0.982 0.651 1.571-0.234 1.155-0.651 1.571c-0.417 0.417-0.982 0.651-1.571 0.651h-31.111c-0.589 0-1.155-0.234-1.571-0.651s-0.651-0.982-0.651-1.571zM3.111 27.111c-0.589 0-1.155 0.234-1.571 0.651s-0.651 0.982-0.651 1.571 0.234 1.155 0.651 1.571c0.417 0.417 0.982 0.651 1.571 0.651h31.111c0.589 0 1.155-0.234 1.571-0.651s0.651-0.982 0.651-1.571-0.234-1.155-0.651-1.571c-0.417-0.417-0.982-0.651-1.571-0.651h-31.111z"></path>
</symbol>
<symbol id="icon-left-close" viewBox="0 0 32 32">
<path d="M1.489 1.489c0.313-0.312 0.736-0.487 1.178-0.487s0.865 0.175 1.178 0.487l26.667 26.667c0.164 0.153 0.295 0.337 0.386 0.541s0.14 0.425 0.144 0.649c0.004 0.224-0.037 0.446-0.121 0.654s-0.209 0.396-0.367 0.554-0.347 0.283-0.554 0.367c-0.207 0.084-0.43 0.125-0.654 0.121s-0.445-0.053-0.649-0.144c-0.204-0.091-0.388-0.223-0.541-0.386l-26.667-26.667c-0.312-0.313-0.487-0.736-0.487-1.178s0.175-0.865 0.487-1.178z"></path>
</symbol>
<symbol id="icon-right-close" viewBox="0 0 32 32">
<path d="M30.511 1.489c0.312 0.313 0.487 0.736 0.487 1.178s-0.175 0.865-0.487 1.178l-26.667 26.667c-0.316 0.294-0.734 0.455-1.166 0.447s-0.844-0.183-1.149-0.488c-0.305-0.305-0.48-0.717-0.488-1.149s0.153-0.85 0.447-1.166l26.667-26.667c0.313-0.312 0.736-0.487 1.178-0.487s0.865 0.175 1.178 0.487z"></path>
</symbol>
</defs>
</svg>
